<?xml version="1.0" encoding="UTF-8"?>
<svg version="1.1" xmlns="http://www.w3.org/2000/svg" width="482" height="482">
<path d="M0 0 C2.79205322 0.11923218 2.79205322 0.11923218 5.34674072 1.96688843 C8.6308599 6.20056921 10.71004828 10.69356608 12.91705322 15.55673218 C13.88659879 17.63960626 14.85799976 19.72161754 15.83111572 21.80282593 C16.56829834 23.38619751 16.56829834 23.38619751 17.32037354 25.0015564 C19.56159723 29.74947057 21.92312694 34.43407909 24.29205322 39.11923218 C28.12226146 46.72757427 31.86975382 54.37087948 35.54205322 62.05673218 C36.17723877 63.38607788 36.17723877 63.38607788 36.82525635 64.74227905 C39.58599476 70.54110981 42.30679164 76.35824633 45.01882935 82.17996216 C47.21875407 86.89923065 49.4349555 91.61061963 51.65924072 96.31845093 C64.68994777 123.90864212 64.68994777 123.90864212 69.78961182 135.4168396 C74.37199446 145.74987954 79.22846547 155.95765246 84.09674072 166.15829468 C98.37043295 196.07304837 98.37043295 196.07304837 103.52423096 208.40731812 C106.77471842 216.17188948 110.24934967 223.83086968 113.72955322 231.49423218 C119.0926207 243.31589288 124.34911595 255.17683381 129.48638916 267.09872437 C130.9058554 270.38250079 132.33648508 273.66127242 133.76861572 276.93954468 C149.91096305 313.93905872 165.25949059 351.26740382 179.60406494 389.00204468 C180.79525948 392.12764514 181.99822098 395.24854093 183.20220947 398.36923218 C187.51737366 409.62784734 191.394413 420.89294777 194.69830322 432.49032593 C195.41339778 435.89823324 195.41339778 435.89823324 196.79205322 437.11923218 C196.89086119 438.59575882 196.92284568 440.07690453 196.92486572 441.55673218 C196.92615479 442.45134155 196.92744385 443.34595093 196.92877197 444.26766968 C196.92490479 445.2086853 196.9210376 446.14970093 196.91705322 447.11923218 C196.92092041 448.0602478 196.9247876 449.00126343 196.92877197 449.97079468 C196.92683838 451.31270874 196.92683838 451.31270874 196.92486572 452.68173218 C196.92373779 453.50802124 196.92260986 454.3343103 196.92144775 455.18563843 C196.79205322 457.11923218 196.79205322 457.11923218 195.79205322 458.11923218 C194.45527004 458.21666433 193.1134003 458.24554782 191.77307129 458.24621582 C190.90699753 458.24903564 190.04092377 458.25185547 189.14860535 458.25476074 C187.71189232 458.2517244 187.71189232 458.2517244 186.24615479 458.24862671 C185.24276566 458.25037903 184.23937653 458.25213135 183.20558167 458.25393677 C179.86459659 458.25836244 176.5236639 458.25541215 173.18267822 458.25204468 C170.86112457 458.25271815 168.53957099 458.25368853 166.21801758 458.25494385 C161.33530002 458.2564223 156.4526007 458.2542639 151.56988525 458.24960327 C145.33952482 458.24394381 139.10920782 458.24715985 132.87884903 458.25317574 C128.07443929 458.25680991 123.27003964 458.25562904 118.46562958 458.25304794 C116.17093653 458.25238458 113.87624255 458.25318629 111.5815506 458.2555275 C81.59149718 458.27938017 81.59149718 458.27938017 68.54205322 455.43173218 C67.33863281 455.17009277 67.33863281 455.17009277 66.11090088 454.90316772 C45.24278142 450.15295174 26.96965037 441.13561985 10.79205322 427.11923218 C10.03537354 426.46438843 9.27869385 425.80954468 8.49908447 425.13485718 C-11.57275914 406.38511105 -22.14054182 379.05588829 -23.42669678 352.07235718 C-24.30723762 323.56484729 -14.68329541 298.23335199 4.54156494 277.20565796 C11.68092746 269.61927039 18.8671857 262.57852146 27.79205322 257.11923218 C29.344729 256.08282593 29.344729 256.08282593 30.92877197 255.02548218 C42.68093721 247.36470103 55.70432271 242.61515258 68.9072876 238.03964233 C69.9056665 237.69078979 70.90404541 237.34193726 71.93267822 236.98251343 C72.84050049 236.6722522 73.74832275 236.36199097 74.68365479 236.04232788 C76.96189242 235.31286967 76.96189242 235.31286967 77.79205322 233.11923218 C77.18329346 232.94545044 76.57453369 232.7716687 75.94732666 232.59262085 C55.86833281 226.73335941 38.1780817 218.21353263 21.79205322 205.11923218 C21.03279541 204.51466187 20.2735376 203.91009155 19.49127197 203.28720093 C17.87512591 201.9560666 16.32386746 200.54660454 14.79205322 199.11923218 C14.79205322 198.45923218 14.79205322 197.79923218 14.79205322 197.11923218 C14.13205322 197.11923218 13.47205322 197.11923218 12.79205322 197.11923218 C-8.7742165 174.41096039 -17.93547216 144.40277449 -26.56292725 115.14022827 C-27.16313694 113.08044258 -27.16313694 113.08044258 -28.20794678 111.11923218 C-30.66939967 118.88693189 -33.10561385 126.65540156 -35.33294678 134.49423218 C-35.65907959 135.63763062 -35.9852124 136.78102905 -36.32122803 137.95907593 C-36.85559021 139.86347682 -37.37770517 141.77146181 -37.87591553 143.68563843 C-43.45505725 164.21011737 -55.74610721 182.84019962 -70.20794678 198.11923218 C-70.94013428 198.90427124 -71.67232178 199.6893103 -72.42669678 200.49813843 C-89.14791204 217.89644516 -111.84600011 226.48476613 -134.20794678 234.11923218 C-129.47031902 236.31884506 -124.73357002 238.31758842 -119.81756592 240.08798218 C-88.46661937 251.44204622 -62.92524473 268.5832 -46.20794678 298.11923218 C-45.85667725 298.73572632 -45.50540771 299.35222046 -45.14349365 299.98739624 C-37.9469979 312.83268403 -33.79027057 326.307953 -33.20794678 341.11923218 C-33.16798584 341.90427124 -33.1280249 342.6893103 -33.08685303 343.49813843 C-32.29806897 373.88952417 -42.24989748 400.69358598 -62.83685303 422.96298218 C-85.70169139 446.64093712 -118.22719558 457.47239596 -150.70822525 458.17317581 C-157.95403986 458.25930327 -165.20007417 458.23400379 -172.44622803 458.21688843 C-174.78177358 458.21502025 -177.11731952 458.21359823 -179.4528656 458.21260071 C-185.56012072 458.20880703 -191.66735155 458.19900409 -197.77459717 458.18789673 C-204.02255932 458.17761445 -210.27052545 458.17308856 -216.51849365 458.1680603 C-228.74832195 458.15737861 -240.97813233 458.14034059 -253.20794678 458.11923218 C-254.11603588 454.10432834 -254.11113778 451.78470727 -252.86419678 447.83407593 C-252.53210205 446.76777954 -252.20000732 445.70148315 -251.85784912 444.60287476 C-251.47838135 443.43264771 -251.09891357 442.26242065 -250.70794678 441.05673218 C-250.11747559 439.19794434 -250.11747559 439.19794434 -249.51507568 437.30160522 C-245.67946413 425.29893413 -241.63043215 413.36421299 -237.58294678 401.43173218 C-237.27010742 400.50714203 -236.95726807 399.58255188 -236.63494873 398.62994385 C-233.15818742 388.37629596 -229.5649477 378.19389873 -225.56326294 368.13188171 C-223.72968863 363.5202696 -222.05653211 358.88044552 -220.45794678 354.18173218 C-216.66790826 343.23067967 -212.15469977 332.56745396 -207.74066162 321.85702515 C-206.18727805 318.07783137 -204.65845343 314.2889681 -203.13372803 310.49813843 C-192.6595265 284.48056686 -181.61759661 258.71471203 -170.27435303 233.06454468 C-167.83321406 227.54349511 -165.40722995 222.01591637 -162.98529053 216.48641968 C-139.10053632 161.96402967 -139.10053632 161.96402967 -129.29193115 141.41317749 C-128.15098754 138.99869411 -127.02730407 136.57642955 -125.90390015 134.15374756 C-121.90948714 125.55002167 -117.78145897 117.01505825 -113.61730957 108.49240112 C-111.62097518 104.40598503 -109.62911053 100.31739257 -107.63763428 96.22860718 C-107.24778351 95.42824036 -106.85793274 94.62787354 -106.45626831 93.80325317 C-103.47167342 87.67130061 -100.51553452 81.5262387 -97.58294678 75.36923218 C-88.28086281 55.85811557 -78.87910126 36.39221684 -69.25521851 17.03753662 C-68.6445314 15.80870589 -68.03511765 14.57924146 -67.42703247 13.34912109 C-66.58988347 11.65717105 -65.74672542 9.96819814 -64.90325928 8.27938843 C-64.19193848 6.8505835 -64.19193848 6.8505835 -63.46624756 5.39291382 C-62.20794678 3.11923218 -62.20794678 3.11923218 -60.20794678 1.11923218 C-57.84387207 0.84075928 -57.84387207 0.84075928 -54.84368896 0.80038452 C-53.72202332 0.78051483 -52.60035767 0.76064514 -51.44470215 0.74017334 C-50.22704163 0.72862213 -49.0093811 0.71707092 -47.75482178 0.70516968 C-46.50670715 0.68580353 -45.25859253 0.66643738 -43.97265625 0.64648438 C-40.64755453 0.59672388 -37.32256554 0.55551754 -33.99731445 0.51834106 C-30.63122058 0.47854796 -27.26530521 0.42721946 -23.89935303 0.37704468 C-11.9472801 0.27894883 -11.9472801 0.27894883 0 0 Z " fill="#FAFAFA" transform="translate(271.20794677734375,14.880767822265625)"/>
<path d="M0 0 C1.06700419 3.98109128 1.52281995 7.90988529 2 12 C1.071875 12.144375 0.14375 12.28875 -0.8125 12.4375 C-4.09464226 13.63597955 -4.09464226 13.63597955 -4.99609375 16.1015625 C-5.49290948 17.72329262 -5.94862422 19.35827013 -6.359375 21.00390625 C-6.57078125 21.66261719 -6.7821875 22.32132812 -7 23 C-7.66 23.33 -8.32 23.66 -9 24 C-6.41874331 15.82602049 -3.22988119 7.93359166 0 0 Z " fill="#ABABAB" transform="translate(85,284)"/>
<path d="M0 0 C0.33 0 0.66 0 1 0 C-0.81578947 14.22368421 -0.81578947 14.22368421 -4 19 C-4.66158043 21.04584079 -4.66158043 21.04584079 -5.125 23.1875 C-5.41375 24.445625 -5.7025 25.70375 -6 27 C-6.66 27 -7.32 27 -8 27 C-6.68764148 20.63569826 -4.98780585 14.57878972 -2.875 8.4375 C-2.59785156 7.61958984 -2.32070313 6.80167969 -2.03515625 5.95898438 C-1.36094863 3.97123432 -0.68107796 1.98540651 0 0 Z " fill="#838383" transform="translate(35,412)"/>
<path d="M0 0 C0 2 0 4 0 6 C-0.66 6 -1.32 6 -2 6 C-2.268125 6.598125 -2.53625 7.19625 -2.8125 7.8125 C-3.99308761 9.98726664 -5.26816512 11.26816512 -7 13 C-7.33 13.99 -7.66 14.98 -8 16 C-8.66 16 -9.32 16 -10 16 C-8.55797524 11.84848662 -6.4989562 8.70021555 -3.875 5.1875 C-3.15054687 4.21167969 -2.42609375 3.23585938 -1.6796875 2.23046875 C-0.84824219 1.12638672 -0.84824219 1.12638672 0 0 Z " fill="#A2A2A2" transform="translate(271,298)"/>
<path d="M0 0 C1.20930281 3.97097304 0.56147135 6.13741297 -1 10 C-1.99 11.485 -1.99 11.485 -3 13 C-3.66 13 -4.32 13 -5 13 C-4.67 14.32 -4.34 15.64 -4 17 C-4.99 17 -5.98 17 -7 17 C-5.1668733 11.00067626 -2.92678249 5.55079437 0 0 Z " fill="#A2A2A2" transform="translate(163,112)"/>
<path d="M0 0 C6.48707154 1.6813917 12.7677635 3.53062327 19 6 C15.61682513 6.97591583 13.4342662 6.85856655 10 6 C10 5.34 10 4.68 10 4 C9.0925 3.87625 8.185 3.7525 7.25 3.625 C4.41029677 3.07890323 2.47409409 2.42736197 0 1 C0 0.67 0 0.34 0 0 Z " fill="#8A8A8A" transform="translate(141,252)"/>
<path d="M0 0 C1.62276158 2.43414237 2.61744792 4.31319446 3.625 7 C3.88539063 7.680625 4.14578125 8.36125 4.4140625 9.0625 C5 11 5 11 5 14 C4.34 14 3.68 14 3 14 C2.690625 13.030625 2.38125 12.06125 2.0625 11.0625 C1.30476658 8.15934208 1.30476658 8.15934208 0 7 C-0.04092937 4.66702567 -0.04241723 2.33294775 0 0 Z " fill="#909090" transform="translate(450,404)"/>
<path d="M0 0 C0.33 0.99 0.66 1.98 1 3 C2.49985609 4.66710346 2.49985609 4.66710346 4 6 C-3.57142857 4.14285714 -3.57142857 4.14285714 -6 1 C-3.92446352 0.4465236 -2.15634036 0 0 0 Z " fill="#9B9B9B" transform="translate(322,233)"/>
<path d="M0 0 C3.375 4.5 3.375 4.5 4 8 C2.35 8.66 0.7 9.32 -1 10 C-0.67 6.7 -0.34 3.4 0 0 Z " fill="#C1C1C1" transform="translate(321,110)"/>
<path d="M0 0 C1.39195915 4.17587745 -0.17676781 6.13474776 -2 10 C-2.66 8.68 -3.32 7.36 -4 6 C-3.34 5.67 -2.68 5.34 -2 5 C-2 3.68 -2 2.36 -2 1 C-1.34 0.67 -0.68 0.34 0 0 Z " fill="#A3A3A3" transform="translate(231,398)"/>
<path d="M0 0 C3.33773709 3.64116773 3.97864902 7.28607242 5 12 C2.69857565 10.21825212 1.19965609 8.83695835 0.51171875 5.953125 C0.27676898 3.9753389 0.13248542 1.98728128 0 0 Z " fill="#919191" transform="translate(426,344)"/>
<path d="M0 0 C1 4 1 4 0 6 C1.65 6 3.3 6 5 6 C5 6.33 5 6.66 5 7 C3.576875 7.4640625 3.576875 7.4640625 2.125 7.9375 C-0.86080408 8.87394742 -0.86080408 8.87394742 -3 10 C-2.01 6.7 -1.02 3.4 0 0 Z " fill="#A0A0A0" transform="translate(75,308)"/>
<path d="M0 0 C0.33 0 0.66 0 1 0 C1 1.65 1 3.3 1 5 C1.66 5 2.32 5 3 5 C2.67 5.66 2.34 6.32 2 7 C1.01 7.33 0.02 7.66 -1 8 C-1.66 8.66 -2.32 9.32 -3 10 C-2.39009109 6.44219804 -1.4216319 3.3171411 0 0 Z " fill="#999999" transform="translate(61,343)"/>
<path d="M0 0 C1 4 1 4 1 8 C-0.32 8.33 -1.64 8.66 -3 9 C-2.01 6.03 -1.02 3.06 0 0 Z " fill="#9C9C9C" transform="translate(125,193)"/>
<path d="M0 0 C2.50298434 2.93828597 3.46930939 5.17902761 4 9 C3.34 8.67 2.68 8.34 2 8 C2 7.34 2 6.68 2 6 C1.01 6 0.02 6 -1 6 C-0.67 4.02 -0.34 2.04 0 0 Z " fill="#B8B8B8" transform="translate(373,222)"/>
<path d="M0 0 C3 1 3 1 5 2 C4.67 3.65 4.34 5.3 4 7 C0 2.25 0 2.25 0 0 Z " fill="#BEBEBE" transform="translate(265,183)"/>
</svg>
